<?xml version="1.0" encoding="utf-8"?>
<!-- Generator: Adobe Illustrator 22.0.1, SVG Export Plug-In . SVG Version: 6.00 Build 0)  -->
<svg version="1.1" id="logo" xmlns="http://www.w3.org/2000/svg" xmlns:xlink="http://www.w3.org/1999/xlink" x="0px" y="0px"
	 viewBox="0 0 256 256" style="enable-background:new 0 0 256 256;" xml:space="preserve">
<g>
	<path d="M79.3,190.7v-55.1h-58v55.1H6.2V65.3h15.1v55.4h58V65.3h15.1v125.4H79.3z"/>
	<g>
		<path d="M140.3,195.7c-1.9,0-3.8-0.5-5.4-1.5c-3.3-1.9-5.4-5.5-5.4-9.4V71.2c0-3.9,2.1-7.5,5.5-9.5c3.4-1.9,7.6-1.9,10.9,0
			l98.5,56.8c3.3,1.9,5.4,5.5,5.4,9.4c0,3.9-2.1,7.5-5.4,9.4l-98.6,56.9C144.1,195.3,142.2,195.7,140.3,195.7z M144.5,78.3v99.4
			l86.1-49.7L144.5,78.3z M236.8,131.6C236.8,131.6,236.8,131.6,236.8,131.6L236.8,131.6z"/>
	</g>
</g>
</svg>
