<?xml version="1.0" encoding="utf-8"?>
<!-- Generator: Adobe Illustrator 22.0.1, SVG Export Plug-In . SVG Version: 6.00 Build 0)  -->
<svg version="1.1" id="Layer_1" xmlns="http://www.w3.org/2000/svg" xmlns:xlink="http://www.w3.org/1999/xlink" x="0px" y="0px"
	 viewBox="0 0 600 230" style="enable-background:new 0 0 600 230;" xml:space="preserve">
<style type="text/css">
	.st0{fill:#FFFFFF;}
</style>
<g>
	<g>
		<path class="st0" d="M63.4,106.6V59.8H14.2v46.8H1.3V0.1h12.9v47h49.2v-47h12.9v106.6H63.4z"/>
		<path class="st0" d="M181,106.6h-13V71.3h-49.2v35.3h-13V41c0-7.3,1.3-11.6,6.1-16.5l24.6-24.4h14L175,24.5
			c4.8,5,6.1,9.2,6.1,16.5V106.6z M164.9,32.9l-20.6-21.5h-1.5l-20.9,21.5c-2.9,3.1-3.1,4.8-3.1,9.2v17.6H168V42.1
			C168,37.7,167.8,36.1,164.9,32.9z"/>
		<path class="st0" d="M271.8,106.6V74.3l-48.1-52.7v85.1h-13.2V0.1h11.8l49.6,54.7V0.1H285v106.6H271.8z"/>
		<path class="st0" d="M314.4,106.6V0.1l13.2,0v54.7l49.6-54.7H389v106.6h-13.2V21.6l-48.1,52.7v32.3H314.4z"/>
		<path class="st0" d="M493.7,106.6h-13V71.3h-49.2v35.3h-13V41c0-7.3,1.3-11.6,6.1-16.5l24.6-24.4h14l24.6,24.4
			c4.8,5,6.1,9.2,6.1,16.5V106.6z M477.5,32.9L457,11.4h-1.5l-20.9,21.5c-2.9,3.1-3.1,4.8-3.1,9.2v17.6h49.2V42.1
			C480.7,37.7,480.5,36.1,477.5,32.9z"/>
		<path class="st0" d="M585.2,106.6V59.8H536v46.8h-12.9V0.1H536v47h49.2v-47h12.9v106.6H585.2z"/>
	</g>
	<path class="st0" d="M45.9,229.3H0.5v-93.1h45.4c11.9,0,20.4,8.7,20.4,20.4V209C66.3,220.7,57.8,229.3,45.9,229.3z M54.8,155.7
		c0-4.3-3.5-8.5-8-8.5h-35v71.3h35c4.5,0,8-4.2,8-8.5V155.7z"/>
	<path class="st0" d="M140.3,229.3h-27.9c-11.7,0-20.4-8.7-20.4-20.4v-52.3c0-11.7,8.7-20.4,20.4-20.4h27.9
		c11.9,0,20.4,8.7,20.4,20.4V209C160.7,220.7,152.2,229.3,140.3,229.3z M149.5,155.7c0-4.3-3.5-8.5-8-8.5h-30.2c-4.5,0-8,4.2-8,8.5
		v54.3c0,4.3,3.5,8.5,8,8.5h30.2c4.5,0,8-4.2,8-8.5V155.7z"/>
	<path class="st0" d="M231.5,229.3h-24.7c-11.7,0-20.4-8.5-20.4-20.4v-72.7h11.9v73.7c0,4.3,3.5,8.5,8,8.5H232c4.5,0,8-4.2,8-8.5
		v-73.7h11.9V209C251.9,220.7,243.4,229.3,231.5,229.3z"/>
	<path class="st0" d="M323,229.3h-25c-11.7,0-20.4-8.7-20.4-20.4v-52.3c0-11.7,8.7-20.4,20.4-20.4h25c11.9,0,20.4,8.7,20.4,20.4v4.5
		h-11.6v-5.8c0-4.3-3.5-8.5-8-8.5h-26.6c-4.3,0-8,4.2-8,8.5v54.4c0,4.3,3.7,8.5,8,8.5h26.6c4.5,0,8-4.2,8-8.5v-21.7h-19.1v-10.8
		h30.7V209C343.4,220.7,334.8,229.3,323,229.3z"/>
	<path class="st0" d="M369,229.3v-93.1h11.9v82.2h41.7v10.9H369z"/>
	<path class="st0" d="M510.9,229.3h-11.4v-30.8h-43v30.8h-11.4V172c0-6.4,1.1-10.1,5.3-14.4l21.5-21.3h12.2l21.5,21.3
		c4.2,4.3,5.3,8,5.3,14.4V229.3z M496.8,165l-18-18.8h-1.3L459.3,165c-2.6,2.7-2.7,4.2-2.7,8v15.4h43V173
		C499.5,169.1,499.4,167.7,496.8,165z"/>
	<path class="st0" d="M580.1,229.7h-24.7c-11.7,0-20.4-8.7-20.4-20.4v-3.9h11.2v4.8c0,4.3,3.5,8.5,8,8.5h27c4.5,0,8-4.2,8-8.5v-12.8
		c0-4.3-3.4-8.3-8-8.5l-25.2-0.8c-11.7-0.3-20.4-8.7-20.4-20.4v-11.1c0-11.7,8.7-20.4,20.4-20.4h22.8c11.9,0,20.4,8.7,20.4,20.4v4
		H588v-5c0-4.3-3.5-8.5-8-8.5h-25c-4.5,0-8,4.2-8,8.5v13c0,4.3,3.5,8.3,8,8.5l25.2,0.6c11.6,0.3,20.4,8.7,20.4,20.4v11.1
		C600.5,221,592,229.7,580.1,229.7z"/>
</g>
</svg>
